# xmcd
# 
# Track frame offsets:
#     150
#     39205
#     70167
#     97204
#     116247
#     145160
# 
# Disc length: 2356
# 
# Revision: 1
# Processed by: cddbd v1.5.2PL0 Copyright (c) Steve Scherf et al.
# Submitted via: fre:ac v1.0.31
# 
DISCID=53093206
DTITLE=Keith Jarrett - Rio CD 1
DYEAR=2011
DGENRE=Jazz
TTITLE0=Rio 01
TTITLE1=Rio 02
TTITLE2=Rio 03
TTITLE3=Rio 04
TTITLE4=Rio 05
TTITLE5=Rio 06
EXTD=YEAR: 2011
EXTT0=
EXTT1=
EXTT2=
EXTT3=
EXTT4=
EXTT5=
PLAYORDER=
